<?xml version="1.0" encoding="UTF-8"?>
<svg width="16px" height="16px" viewBox="0 0 16 16" version="1.1" xmlns="http://www.w3.org/2000/svg" xmlns:xlink="http://www.w3.org/1999/xlink">
    <title>keyboard-symbolic-dark</title>
    <g id="keyboard-symbolic-dark" stroke="none" fill="none" fill-rule="evenodd">
        <path d="M14,2 C15.1045695,2 16,2.8954305 16,4 L16,12 C16,13.1045695 15.1045695,14 14,14 L2,14 C0.8954305,14 0,13.1045695 0,12 L0,4 C0,2.8954305 0.8954305,2 2,2 L14,2 Z M14,5 L2,5 C1.44771525,5 1,5.44771525 1,6 L1,12 C1,12.5522847 1.44771525,13 2,13 L14,13 C14.5522847,13 15,12.5522847 15,12 L15,6 C15,5.44771525 14.5522847,5 14,5 Z M4,10 L4,12 L2,12 L2,10 L4,10 Z M11,10 L11,12 L5,12 L5,10 L11,10 Z M14,10 L14,12 L12,12 L12,10 L14,10 Z M4,7 L4,9 L2,9 L2,7 L4,7 Z M7,7 L7,9 L5,9 L5,7 L7,7 Z M14,7 L14,9 L11,9 L11,7 L14,7 Z M10,7 L10,9 L8,9 L8,7 L10,7 Z M10,3 L9,3 L9,4 L10,4 L10,3 Z M12,3 L11,3 L11,4 L12,4 L12,3 Z M14,3 L13,3 L13,4 L14,4 L14,3 Z" id="形状结合" fill="#000000"></path>
    </g>
</svg>