<?xml version="1.0" encoding="UTF-8"?>
<svg width="16px" height="16px" viewBox="0 0 16 16" version="1.1" xmlns="http://www.w3.org/2000/svg" xmlns:xlink="http://www.w3.org/1999/xlink">
    <title>battery-010-plugged-uncharged-symbolic-dark</title>
    <g id="battery-010-plugged-uncharged-symbolic-dark" stroke="none" stroke-width="1" fill="none" fill-rule="evenodd">
        <polygon id="Rectangle" fill="#FF001F" points="2 5 3 5 3 11 2 11"></polygon>
        <path d="M5,3 L5,4 L2,4 C1.44771525,4 1,4.44771525 1,5 L1,11 C1,11.5522847 1.44771525,12 2,12 L6,12 L6,13 L2,13 C0.8954305,13 0,12.1045695 0,11 L0,5 C0,3.8954305 0.8954305,3 2,3 L5,3 Z M7,5 L8,5 L8,3 L9,3 L9,5 L10,5 L9.99168192,6.64811387 C9.99168192,7.63754071 8.9641454,8.60732774 8,8.98367568 L8,13 L7,13 L7,9 C6.03325493,8.65875746 5,7.74081214 5,6.64811387 L5,5 L6,5 L6,3 L7,3 L7,5 Z M13,3 C14.1045695,3 15,3.8954305 15,5 L15,6 L16,6 L16,10 L15,10 L15,11 C15,12.1045695 14.1045695,13 13,13 L9,13 L9,12 L13,12 C13.5522847,12 14,11.5522847 14,11 L14,5 C14,4.44771525 13.5522847,4 13,4 L10,4 L10,3 L13,3 Z" id="形状结合" fill="#000000" fill-rule="nonzero"></path>
    </g>
</svg>