<?xml version="1.0" encoding="UTF-8"?>
<svg width="16px" height="16px" viewBox="0 0 16 16" version="1.1" xmlns="http://www.w3.org/2000/svg" xmlns:xlink="http://www.w3.org/1999/xlink">
    <title>battery-060-plugged-uncharged-symbolic-dark</title>
    <g id="battery-060-plugged-uncharged-symbolic-dark" stroke="none" stroke-width="1" fill="none" fill-rule="evenodd">
        <path d="M5,3 L5,4 L2,4 C1.44771525,4 1,4.44771525 1,5 L1,11 C1,11.5522847 1.44771525,12 2,12 L6,12 L6,13 L2,13 C0.8954305,13 0,12.1045695 0,11 L0,5 C0,3.8954305 0.8954305,3 2,3 L5,3 Z M7,5 L8,5 L8,3 L9,3 L9,5 L10,5 L9.99168192,6.64811387 C9.99168192,6.70973989 9.98769573,6.77128972 9.97998694,6.83262471 C9.96659132,6.93945003 9.94175714,7.04604882 9.90694774,7.15125037 C9.87659535,7.24298748 9.83864173,7.33369352 9.79403306,7.42284435 C9.67049131,7.66976629 9.49582816,7.90482567 9.28997536,8.1174845 L9.36161763,8.04116835 C9.32188908,8.08482642 9.28081294,8.12763418 9.23854944,8.16950734 L9.28997536,8.1174845 C9.24372871,8.16526018 9.19590787,8.21190528 9.14673842,8.25730113 L9.23854944,8.16950734 C9.19813436,8.20954915 9.1566335,8.24873633 9.11418696,8.2869952 L9.14673842,8.25730113 C9.10700844,8.29398197 9.06639795,8.32984718 9.02502596,8.36483416 C8.70998969,8.63125041 8.3507989,8.84674359 8,8.98367568 L8,13 L7,13 L7,9 C6.03325493,8.65875746 5,7.74081214 5,6.64811387 L5,5 L6,5 L6,3 L7,3 L7,5 Z M13,3 C14.1045695,3 15,3.8954305 15,5 L15,6 L16,6 L16,10 L15,10 L15,11 C15,12.1045695 14.1045695,13 13,13 L9,13 L9,12 L13,12 C13.5522847,12 14,11.5522847 14,11 L14,5 C14,4.44771525 13.5522847,4 13,4 L10,4 L10,3 L13,3 Z M4,6.64811387 L4.00620139,6.83219947 C4.0843198,7.99149085 4.89223467,9.02047842 5.96146724,9.62238366 L6,9.643 L6,11 L2,11 L2,5 L4,5 L4,6.64811387 Z" id="形状结合" fill="#000000" fill-rule="nonzero"></path>
    </g>
</svg>