<?xml version="1.0" encoding="UTF-8"?>
<svg width="16px" height="16px" viewBox="0 0 16 16" version="1.1" xmlns="http://www.w3.org/2000/svg" xmlns:xlink="http://www.w3.org/1999/xlink">
    <title>battery-full-charged-symbolic-dark</title>
    <g id="battery-full-charged-symbolic-dark" stroke="none" stroke-width="1" fill="none" fill-rule="evenodd">
        <path d="M5,3 L5,4 L2,4 C1.44771525,4 1,4.44771525 1,5 L1,11 C1,11.5522847 1.44771525,12 2,12 L6,12 L6,13 L2,13 C0.8954305,13 0,12.1045695 0,11 L0,5 C0,3.8954305 0.8954305,3 2,3 L5,3 Z M7,5 L8,5 L8,3 L9,3 L9,5 L10,5 L9.99168192,6.64811387 C9.99168192,7.63754071 8.9641454,8.60732774 8,8.98367568 L8,13 L7,13 L7,9 C6.84567123,8.94552489 6.68964751,8.87635302 6.53640294,8.79411959 C6.50372306,8.77658578 6.47097005,8.75834278 6.43838908,8.7395146 C6.41777505,8.72760259 6.3971619,8.7154152 6.37662936,8.70299613 C6.34927657,8.68645147 6.32209807,8.66951565 6.29508895,8.65217934 C6.27110921,8.6367857 6.24742297,8.62118443 6.22388678,8.6052784 C6.19903024,8.58848159 6.17421691,8.57125641 6.14959442,8.55369584 C6.12361564,8.5351745 6.09737721,8.51592377 6.07138604,8.49629569 C6.05191981,8.48158847 6.03320854,8.46715494 6.01463768,8.45252686 C5.98593029,8.42992001 5.95723327,8.40657539 5.92891887,8.38276952 C5.90810278,8.36526923 5.887404,8.34744072 5.86692969,8.32936653 C5.84358163,8.30875422 5.82059992,8.28789185 5.79793159,8.2667206 C5.771461,8.2420009 5.74529217,8.21673479 5.71959248,8.19105718 C5.70682654,8.17830515 5.69392304,8.16518973 5.68114487,8.15197044 C5.65388179,8.12376688 5.62716382,8.09506216 5.6010652,8.06590112 C5.57914359,8.04141028 5.55753981,8.01645537 5.53640663,7.99118542 C5.52338216,7.97561127 5.51054657,7.9599301 5.49789618,7.94413192 C5.47182661,7.91157287 5.44660844,7.87860562 5.4222311,7.84516537 C5.41100583,7.8297703 5.39979501,7.81403988 5.38877377,7.79820832 C5.36350717,7.76190749 5.33935154,7.72525832 5.31625368,7.68810857 C5.30848637,7.67561876 5.30071113,7.66285882 5.29306236,7.65004139 C5.27211484,7.6149308 5.25222633,7.57959646 5.23333308,7.54385666 C5.2237847,7.52579438 5.21448752,7.5076225 5.2054521,7.4893497 C5.18874859,7.45557442 5.17288611,7.4213312 5.15797144,7.38675786 C5.14914146,7.36628545 5.14069706,7.34583224 5.13259028,7.32526829 C5.11848311,7.28949207 5.1053454,7.2532222 5.09328965,7.21663294 C5.08754157,7.19918543 5.08205898,7.18173048 5.07682609,7.16420544 C5.06848972,7.13628783 5.06078232,7.10817367 5.05373164,7.07988957 C5.03243761,6.99447607 5.01712788,6.90746884 5.00842627,6.81913433 L5,6.64811387 L5,5 L6,5 L6,3 L7,3 L7,5 Z M13,3 C14.1045695,3 15,3.8954305 15,5 L15,6 L16,6 L16,10 L15,10 L15,11 C15,12.1045695 14.1045695,13 13,13 L9,13 L9,12 L13,12 C13.5522847,12 14,11.5522847 14,11 L14,5 C14,4.44771525 13.5522847,4 13,4 L10,4 L10,3 L13,3 Z M4,5 L4,6.64811387 L4.00620139,6.83219947 C4.0843198,7.99149085 4.89223467,9.02047842 5.96146724,9.62238366 L6,9.643 L6,11 L2,11 L2,5 L4,5 Z M13,5 L13,11 L9,11 L9,9.606 L9.07989064,9.56003522 C10.1670271,8.89889304 10.9916819,7.79638638 10.9916819,6.64811387 L10.9999873,5.00504697 L13,5 Z" id="形状结合" fill="#000000" fill-rule="nonzero"></path>
    </g>
</svg>