<?xml version="1.0" encoding="UTF-8"?>
<svg width="16px" height="16px" viewBox="0 0 16 16" version="1.1" xmlns="http://www.w3.org/2000/svg" xmlns:xlink="http://www.w3.org/1999/xlink">
    <title>eyeshield-on</title>
    <g id="eyeshield-on" stroke="none" stroke-width="1" fill="none" fill-rule="evenodd">
        <path d="M10.4223951,14.5886796 C10.4988562,14.8540252 10.345735,15.1311143 10.0803893,15.2075754 C9.40992149,15.4007752 8.7118679,15.4998957 8.00112196,15.4999999 C7.72497959,15.5000404 7.50108915,15.2762156 7.50104867,15.0000732 C7.50100819,14.7239309 7.72483299,14.5000404 8.00097536,14.4999999 C8.61786079,14.4999095 9.22276842,14.4140152 9.80349923,14.2466738 C10.0688449,14.1702127 10.345934,14.3233339 10.4223951,14.5886796 Z M4.57982465,13.5285563 C5.0971154,13.8493045 5.65718194,14.096057 6.24527352,14.2605205 C6.51121241,14.334892 6.66650845,14.6107681 6.59213695,14.876707 C6.51776544,15.1426459 6.24188936,15.2979419 5.97595048,15.2235704 C5.29670217,15.0336143 4.64994213,14.7486667 4.05285182,14.3784384 C3.81816335,14.2329189 3.74587764,13.9246994 3.89139717,13.6900109 C4.0369167,13.4553225 4.34513618,13.3830368 4.57982465,13.5285563 Z M13.6043857,12.2243515 C13.8124241,12.4059406 13.8338656,12.7217961 13.6522765,12.9298346 C13.1900164,13.4594252 12.655492,13.9223188 12.0650807,14.3037866 C11.8331389,14.4536453 11.5236285,14.3871039 11.3737698,14.1551622 C11.223911,13.9232204 11.2904525,13.61371 11.5223942,13.4638513 C12.0343261,13.1330894 12.4979518,12.7315934 12.8989025,12.2722423 C13.0804916,12.0642038 13.3963472,12.0427624 13.6043857,12.2243515 Z M2.13304237,10.8017741 C2.39613817,11.351633 2.73581534,11.8618884 3.14099828,12.3175313 C3.32449954,12.5238851 3.30597388,12.8399251 3.09962007,13.0234264 C2.89326625,13.2069276 2.57722626,13.188402 2.393725,12.9820481 C1.92646431,12.4565966 1.53462431,11.8679833 1.23098467,11.2333895 C1.11179735,10.9842932 1.21710944,10.6857403 1.4662058,10.566553 C1.71530215,10.4473656 2.01385506,10.5526777 2.13304237,10.8017741 Z M8.30899614,3.34340063 C10.7422609,3.50246159 12.6666667,5.52651034 12.6666667,8 C12.6666667,10.5773152 10.5773152,12.6666667 8,12.6666667 C5.52651034,12.6666667 3.50246159,10.7422609 3.34340063,8.30899614 C3.98953688,9.19913423 5.03830483,9.77777778 6.22222222,9.77777778 C8.18590133,9.77777778 9.77777778,8.18590133 9.77777778,6.22222222 C9.77777778,5.08202145 9.24107854,4.0671735 8.40652637,3.41652468 L8.30899614,3.34340063 Z M14.9130764,8.45177135 L15.0032183,8.45589002 C15.2768462,8.49307027 15.4685249,8.74503007 15.4313447,9.01865799 C15.3360478,9.71999538 15.1426177,10.3991503 14.8582785,11.039781 C14.7462533,11.2921795 14.4508296,11.4059745 14.1984311,11.2939493 C13.9460327,11.1819241 13.8322377,10.8865004 13.9442629,10.6341019 C14.1904599,10.0794077 14.3579101,9.49147084 14.4404503,8.88401642 C14.4693683,8.6711947 14.6282146,8.5079472 14.8261289,8.46339605 L14.9130764,8.45177135 Z M1.02272374,6.64176324 L1.11291241,6.64468344 C1.38701034,6.67822348 1.58202105,6.92761332 1.54848101,7.20171126 C1.51625803,7.46504583 1.5,7.73145551 1.5,8 C1.5,8.29795715 1.5200144,8.59327124 1.55963583,8.8846501 C1.596843,9.15827436 1.40518908,9.41025303 1.13156482,9.4474602 C0.857940553,9.48466737 0.605961889,9.29301345 0.568754717,9.01938919 C0.523065238,8.68338541 0.5,8.34305604 0.5,8 C0.5,7.69083265 0.518733343,7.38386171 0.555884587,7.08025204 C0.581971281,6.86706476 0.738633789,6.70172037 0.935938484,6.65454258 L1.02272374,6.64176324 Z M14.837681,4.91423132 C15.1264069,5.55307554 15.3244331,6.23099674 15.424415,6.93159299 C15.463428,7.20496563 15.2734419,7.45820419 15.0000693,7.49721714 C14.7266966,7.53623009 14.4734581,7.34624403 14.4344451,7.07287139 C14.3478517,6.4660913 14.1764242,5.87922801 13.9264258,5.32607344 C13.8126988,5.07443726 13.9244962,4.77825183 14.1761324,4.66452477 C14.4277685,4.55079771 14.723954,4.66259514 14.837681,4.91423132 Z M2.93131962,3.14642172 C3.14377199,3.32282637 3.17299444,3.63805727 2.99658978,3.85050964 C2.60717441,4.31950076 2.28512563,4.8408154 2.0409823,5.399397 C1.93038901,5.65242612 1.63561481,5.76789318 1.38258569,5.6572999 C1.12955657,5.54670661 1.01408951,5.25193241 1.12468279,4.99890329 C1.40650614,4.35411266 1.77808802,3.75261659 2.2272317,3.21169188 C2.40363635,2.99923951 2.71886725,2.97001706 2.93131962,3.14642172 Z M12.0703824,1.699642 C12.6604937,2.0816197 13.194649,2.54498023 13.6564765,3.0749813 C13.8378893,3.2831736 13.8161801,3.59901088 13.6079878,3.7804236 C13.3997955,3.96183633 13.0839582,3.9401272 12.9025455,3.7319349 C12.50197,3.27222768 12.0386634,2.87032588 11.5269897,2.53912068 C11.2951741,2.38906696 11.228893,2.07950067 11.3789467,1.84768503 C11.5290004,1.6158694 11.8385667,1.54958827 12.0703824,1.699642 Z M6.36924371,1.1724835 C6.45229221,1.43584173 6.30612229,1.71665987 6.04276406,1.79970837 C5.46070202,1.98325827 4.90879457,2.24822585 4.40193746,2.58578738 C4.17210132,2.73885585 3.86169579,2.67662334 3.70862733,2.44678719 C3.55555886,2.21695105 3.61779136,1.90654552 3.84762751,1.75347706 C4.4325645,1.36391515 5.06978715,1.05798823 5.74201885,0.846003845 C6.00537708,0.762955349 6.28619522,0.90912527 6.36924371,1.1724835 Z M8,0.5 C8.7106399,0.5 9.40860152,0.598985585 10.0790004,0.792024476 C10.3443609,0.868434052 10.4975359,1.14549343 10.4211263,1.41085392 C10.3447167,1.6762144 10.0676573,1.82938938 9.80229685,1.75297981 C9.221625,1.58577748 8.61679561,1.5 8,1.5 L7.86177137,1.50143843 C7.5856889,1.50718964 7.35721755,1.28804285 7.35146634,1.01196037 C7.34571513,0.73587789 7.56486193,0.507406545 7.8409444,0.501655336 L8,0.5 Z" id="形状" fill="#FFFFFF" fill-rule="nonzero"></path>
    </g>
</svg>